<svg id="Layer_1" data-name="Layer 1" xmlns="http://www.w3.org/2000/svg" viewBox="0 0 1013.74 453.98"><title>dogovietquangminh-02</title><polygon points="995.89 308.38 1013.74 306.75 1013.74 449.44 995.89 453.98 995.89 308.38" style="fill:#ffbf80"/><polygon points="995.89 154.19 1013.74 155.64 1013.74 298.33 995.89 299.79 995.89 154.19" style="fill:#3a1c03"/><polygon points="830.17 90.9 995.89 0 995.89 145.6 830.17 180.44 830.17 90.9" style="fill:#f7931e"/><polygon points="995.89 0 1013.74 4.54 1013.74 147.23 995.89 145.6 995.89 0" style="fill:#ffbf80"/><polygon points="995.89 145.6 1013.74 147.23 849.54 181.29 830.17 180.44 995.89 145.6" style="fill:#b75b00"/><polygon points="830.17 280.53 995.89 308.38 995.89 453.98 830.17 370.07 830.17 280.53" style="fill:#f7931e"/><polygon points="830.17 280.53 849.54 279.55 1013.74 306.75 995.89 308.38 830.17 280.53" style="fill:#b75b00"/><polygon points="830.17 185.72 995.89 154.19 995.89 299.79 830.17 275.26 830.17 185.72" style="fill:#603813"/><text transform="translate(0 321.04)" style="font-size:136.6931610107422px;fill:#f7931e;font-family:Calibri-Bold, Calibri;font-weight:700;letter-spacing:0.009998299905015705em">Q<tspan x="95.14" y="0" style="letter-spacing:-0.016856726420782103em">U</tspan><tspan x="182.08" y="0" style="letter-spacing:0.010001872002159334em">ANG MINH</tspan></text><text transform="translate(190.27 180.87)" style="font-size:75.70697784423828px;fill:#fff;font-family:Cambria;letter-spacing:0.0500039050434518em">ĐỒ GỖ VIỆT</text><path d="M800.52,915.34" transform="translate(-5.21 -347.46)" style="fill:none"/><path d="M792.24,78" transform="translate(-5.21 -347.46)" style="fill:none"/><path d="M810.45,869" transform="translate(-5.21 -347.46)" style="fill:none"/><path d="M807.14,384.14" transform="translate(-5.21 -347.46)" style="fill:none"/></svg>