<svg id="Layer_1" data-name="Layer 1" xmlns="http://www.w3.org/2000/svg" viewBox="0 0 3003.56 830.86"><title>dogovietquangminh-white</title><path d="M82.05,808a339.32,339.32,0,0,1,0-75.92c15.36-137.42,113.06-250.3,242.48-288a338.06,338.06,0,0,1,75.92-13c6.29-.34,12.61-.54,19-.54s12.69.2,19,.54v639.92a299.56,299.56,0,0,0,75.92-14.7V657.1l63.73,125.8,58.5-74.23a223.51,223.51,0,0,1,5.3,23.36,224.93,224.93,0,0,1-37.05,166.4l54.3,54.31A300,300,0,0,0,718.6,808a302.65,302.65,0,0,0,0-75.92,299.1,299.1,0,0,0-27.41-92.67,302.34,302.34,0,0,0-45.46-68.42l-60.46,67.53L514.33,483.74V365.46A415.06,415.06,0,0,0,438.41,355q-9.44-.43-19-.45t-19,.45a415.06,415.06,0,0,0-75.92,10.45C152.78,405.59,22,552.29,5.74,732,4.61,744.53,4,757.19,4,770s.61,25.45,1.74,38c15.07,166.25,128,304.21,280.84,355.75v-81.31C176.33,1035.33,95.87,931.57,82.05,808Z" transform="translate(-4 -354.56)" style="fill:#fff"/><path d="M833.12,732c-15.06-166.14-127.9-304-280.53-355.65v81.34C662.68,504.84,743,608.52,756.81,732a339.32,339.32,0,0,1,0,75.92c-15.36,137.41-113.06,250.3-242.48,288a338.05,338.05,0,0,1-75.92,13q-9.44.52-19,.54t-19-.54V469.05a299.55,299.55,0,0,0-75.92,14.69C216.19,519.76,134.94,615.67,120.26,732a302.65,302.65,0,0,0,0,75.92A299.37,299.37,0,0,0,165,931.67l-11.41,11.41c15.33,29.68,48.8,58.56,48.8,58.56l11.36-11.35a301.75,301.75,0,0,0,110.74,65.94v118.29A415.93,415.93,0,0,0,400.45,1185c6.29.28,12.62.45,19,.45s12.69-.17,19-.45a415.93,415.93,0,0,0,75.92-10.45C686.08,1134.38,816.83,987.69,833.12,808c1.13-12.51,1.74-25.16,1.74-38S834.25,744.53,833.12,732ZM324.53,974.67a226.47,226.47,0,0,1-57.06-38.06L319,885.12l-53.68-53.68-44.81,44.81A224,224,0,0,1,197,808,226.05,226.05,0,0,1,197,732C209.6,658,258.42,596.08,324.53,565.3Z" transform="translate(-4 -354.56)" style="fill:#fff"/><text transform="translate(863.12 364.29)" style="font-size:200px;fill:#fff;font-family:Cambria-Italic, Cambria;font-style:italic;letter-spacing:0.02300048828125em">DOG<tspan x="384.41" y="0" style="letter-spacing:-0.00824951171875em">O</tspan><tspan x="507.07" y="0">VI</tspan><tspan x="695.37" y="0" style="letter-spacing:0.0083544921875em">E</tspan><tspan x="810.72" y="0" style="letter-spacing:-0.089306640625em">T</tspan><tspan x="907.6" y="0" style="letter-spacing:0.0230029296875em">.VN</tspan></text><text transform="translate(846.68 693.05)" style="font-size:340px;fill:#fff;font-family:Cambria-Bold, Cambria;font-weight:700;letter-spacing:0.02299948299632353em">Q<tspan x="244.23" y="0" style="letter-spacing:-0.02924517463235294em">U</tspan><tspan x="464.21" y="0">ANG MINH</tspan></text><path d="M867.12,1422.72" transform="translate(-4 -354.56)" style="fill:#fff"/><path d="M867.12,293.19" transform="translate(-4 -354.56)" style="fill:#fff"/><path d="M4,770" transform="translate(-4 -354.56)" style="fill:#fff"/><path d="M3004.8,759" transform="translate(-4 -354.56)" style="fill:#fff"/></svg>