<?xml version="1.0" encoding="iso-8859-1"?>
<!-- Generator: Adobe Illustrator 19.0.0, SVG Export Plug-In . SVG Version: 6.00 Build 0)  -->
<svg xmlns="http://www.w3.org/2000/svg" xmlns:xlink="http://www.w3.org/1999/xlink" version="1.1" id="Layer_1" x="0px" y="0px" viewBox="0 0 512 512" style="enable-background:new 0 0 512 512;" xml:space="preserve" width="512" height="512">
<g>
	
		<linearGradient id="XMLID_30_" gradientUnits="userSpaceOnUse" x1="0" y1="-13466" x2="512" y2="-13466" gradientTransform="matrix(1 0 0 -1 0 -13210)">
		<stop offset="0" style="stop-color:#31D8FF"/>
		<stop offset="1" style="stop-color:#FF80FF"/>
	</linearGradient>
	<circle id="XMLID_2_" style="fill:url(#XMLID_30_);" cx="256" cy="256" r="256"/>
	<path style="fill:#FFFFFF;" d="M256,56C145.72,56,56,145.72,56,256s89.72,200,200,200s200-89.72,200-200S366.28,56,256,56z    M256,426c-93.738,0-170-76.262-170-170S162.262,86,256,86s170,76.262,170,170S349.738,426,256,426z"/>
	<path style="fill:#FFFFFF;" d="M267.84,138.613c-2.842-3.654-7.211-5.791-11.84-5.791s-8.999,2.137-11.84,5.791l-54.873,70.551   c-5.086,6.539-3.908,15.963,2.631,21.049c6.54,5.087,15.963,3.908,21.049-2.631L256,172.254l43.033,55.328   c2.957,3.802,7.38,5.792,11.851,5.792c3.218,0,6.461-1.031,9.198-3.16c6.539-5.086,7.718-14.51,2.631-21.049L267.84,138.613z"/>
	<path style="fill:#FFFFFF;" d="M320.082,281.787c-6.537-5.086-15.964-3.908-21.049,2.631L256,339.746l-43.033-55.328   c-5.085-6.54-14.51-7.717-21.049-2.631c-6.54,5.086-7.717,14.51-2.631,21.049l54.873,70.551c2.842,3.654,7.211,5.791,11.84,5.791   s8.998-2.137,11.84-5.791l54.873-70.551C327.8,296.297,326.621,286.873,320.082,281.787z"/>
</g>















</svg>
